<svg width="128" height="24" viewBox="0 0 128 24" fill="none" xmlns="http://www.w3.org/2000/svg">
<g clip-path="url(#clip0_606_4211)">
<path fill-rule="evenodd" clip-rule="evenodd" d="M94.3722 0V18.5997H90.8912L90.4485 17.5843C89.2955 18.552 87.8352 19.0761 86.3304 19.0622C82.1403 19.0622 79.1562 16.0065 79.1562 11.7673C79.1562 7.52821 82.1389 4.48637 86.3304 4.48637C87.5282 4.47778 88.7041 4.80653 89.724 5.43504V0H94.3722ZM90.0154 11.7673C90.0154 9.98252 88.7205 8.63939 86.962 8.63939C85.2035 8.63939 83.9085 9.98252 83.9085 11.7673C83.9085 13.5522 85.2035 14.8939 86.962 14.8939C88.7205 14.8939 90.0154 13.5522 90.0154 11.7673Z" fill="#2E2C36"/>
<path fill-rule="evenodd" clip-rule="evenodd" d="M70.6273 4.48637C66.1761 4.48637 62.9714 7.53099 62.9714 11.7673H62.9686C62.9686 15.9912 66.1872 19.0469 70.6245 19.0469C75.0617 19.0469 78.2804 16.0037 78.2804 11.7673C78.2804 7.53099 75.0784 4.48637 70.6273 4.48637ZM73.5697 11.7673C73.5697 13.573 72.34 14.8231 70.6245 14.8231C68.9104 14.8231 67.6793 13.573 67.6793 11.7673C67.6793 9.96169 68.909 8.71161 70.6245 8.71161C72.34 8.71161 73.5697 9.96169 73.5697 11.7673Z" fill="#2E2C36"/>
<path d="M54.2788 5.05415C55.0051 4.70578 55.8009 4.52684 56.6063 4.53082C59.532 4.53082 61.4752 6.8115 61.4752 10.0297V18.6052H56.7728V10.6159C56.7728 9.19498 56.2454 8.50049 55.2461 8.50049C53.9539 8.50049 53.2919 9.39221 53.2919 11.1118V18.6052H48.7117V10.6159C48.7117 9.23248 48.1912 8.50049 47.2057 8.50049C45.926 8.50049 45.2321 9.41305 45.2321 11.1118V18.5997H40.5284V4.93501H42.6297C42.9895 4.93457 43.3418 5.03781 43.6446 5.2324C43.9473 5.42698 44.1876 5.70467 44.3369 6.03229L44.5062 6.40315C44.9964 5.82075 45.607 5.35174 46.2959 5.02849C46.9849 4.70524 47.7357 4.53544 48.4965 4.53082C50.162 4.53082 51.5639 5.27947 52.4133 6.54204C52.9147 5.91126 53.5525 5.40253 54.2788 5.05415Z" fill="#2E2C36"/>
<path fill-rule="evenodd" clip-rule="evenodd" d="M111.351 18.5858V4.91973H107.844L107.363 5.97257C106.188 5.00802 104.711 4.48783 103.191 4.50304C99.0162 4.50304 96.0308 7.49904 96.0308 11.7465C96.0308 15.994 99.0162 19.0414 103.191 19.0414C104.688 19.0567 106.145 18.5521 107.312 17.6135L107.714 18.5858H111.351ZM103.819 8.65745C105.576 8.65745 106.872 9.98947 106.872 11.7632C106.872 13.548 105.577 14.88 103.819 14.88C102.06 14.88 100.765 13.5369 100.765 11.7632C100.765 9.98947 102.061 8.65745 103.819 8.65745Z" fill="#2E2C36"/>
<path d="M122.135 18.5997L118.715 12.8216V18.5997H114.012V0H118.715V10.2881L121.967 4.93501H127.25L122.993 11.4479L127.68 18.5997H122.135Z" fill="#2E2C36"/>
<path d="M124.525 2.22235H125.629L125.622 2.22652C125.629 2.22675 125.635 2.22875 125.641 2.23223C125.644 2.23403 125.647 2.23623 125.649 2.2388C125.657 2.24631 125.661 2.25635 125.661 2.2668V2.4307L125.66 2.43309C125.66 2.43735 125.659 2.4415 125.658 2.44543C125.656 2.45033 125.653 2.45484 125.649 2.4587C125.648 2.46014 125.646 2.46147 125.645 2.46268C125.643 2.46383 125.642 2.46487 125.64 2.4658C125.634 2.46895 125.628 2.47075 125.622 2.47098H125.205V3.65854C125.205 3.66372 125.204 3.6688 125.202 3.67352C125.2 3.67853 125.197 3.68313 125.193 3.68703C125.186 3.69458 125.176 3.69883 125.165 3.69883H124.982C124.971 3.69883 124.961 3.69458 124.953 3.68703C124.946 3.67947 124.942 3.66923 124.942 3.65854V2.47098H124.525L124.523 2.47088C124.521 2.47078 124.519 2.47058 124.518 2.47029C124.515 2.46977 124.513 2.46897 124.51 2.46789C124.505 2.46585 124.501 2.46286 124.497 2.4591C124.494 2.45534 124.491 2.45089 124.489 2.44601L124.488 2.44369C124.487 2.4413 124.487 2.43885 124.487 2.43636C124.486 2.43449 124.486 2.43259 124.486 2.4307V2.26263C124.486 2.25741 124.487 2.2522 124.489 2.24732C124.49 2.24546 124.49 2.24365 124.491 2.24193C124.493 2.23914 124.495 2.23655 124.497 2.23423C124.498 2.23296 124.5 2.23179 124.501 2.23071C124.502 2.22974 124.504 2.22886 124.505 2.22805C124.507 2.22706 124.508 2.22618 124.51 2.22544C124.511 2.22482 124.513 2.22429 124.514 2.22386C124.516 2.22343 124.517 2.2231 124.519 2.22285C124.521 2.22252 124.523 2.22235 124.525 2.22235Z" fill="#2E2C36"/>
<path d="M127.229 2.22235H126.981C126.972 2.22252 126.964 2.22528 126.957 2.23026C126.951 2.23523 126.946 2.24218 126.943 2.25013L126.61 3.22241C126.605 3.23711 126.6 3.25141 126.596 3.26524C126.589 3.28639 126.582 3.30643 126.575 3.3251L126.574 3.32936C126.569 3.31286 126.563 3.29588 126.558 3.27811C126.553 3.26595 126.549 3.25344 126.545 3.24046L126.214 2.2543C126.213 2.24941 126.211 2.24488 126.208 2.24094C126.206 2.23828 126.203 2.2359 126.2 2.23386C126.198 2.23198 126.195 2.23043 126.192 2.22926C126.187 2.22728 126.182 2.22633 126.177 2.22652H125.899C125.889 2.22688 125.879 2.23128 125.872 2.2388C125.864 2.24631 125.86 2.25635 125.86 2.2668V3.65577C125.86 3.66062 125.861 3.66539 125.863 3.66985C125.864 3.67305 125.866 3.6761 125.868 3.67891C125.869 3.68062 125.87 3.68225 125.872 3.68377C125.875 3.68758 125.88 3.69059 125.884 3.69268C125.889 3.69471 125.894 3.69587 125.899 3.69604H126.077C126.083 3.69583 126.089 3.6941 126.095 3.69108C126.098 3.68915 126.102 3.68669 126.105 3.68377C126.112 3.67625 126.116 3.66621 126.116 3.65577V2.71266L126.442 3.67104C126.445 3.679 126.45 3.68594 126.456 3.69092C126.463 3.6959 126.471 3.69866 126.479 3.69883H126.645C126.653 3.69876 126.661 3.6962 126.667 3.69149C126.67 3.68945 126.673 3.68705 126.675 3.68437C126.677 3.68196 126.679 3.67931 126.68 3.67649C126.681 3.67518 126.682 3.67382 126.682 3.67243L127.01 2.72794V3.65854C127.01 3.66338 127.011 3.66814 127.012 3.67259C127.014 3.67796 127.017 3.6829 127.021 3.68703C127.029 3.69458 127.039 3.69883 127.05 3.69883H127.228C127.238 3.69846 127.248 3.69406 127.255 3.68655C127.262 3.67903 127.266 3.66899 127.266 3.65854V2.26957C127.266 2.25913 127.262 2.24909 127.255 2.24157C127.253 2.23886 127.25 2.23655 127.246 2.23469C127.241 2.2314 127.234 2.22952 127.228 2.22929L127.229 2.22235Z" fill="#2E2C36"/>
<path fill-rule="evenodd" clip-rule="evenodd" d="M12.9981 23.3948C13.8229 23.7931 14.7268 23.9999 15.6425 24C16.5585 23.9997 17.4625 23.7928 18.2875 23.3946C19.1124 22.9963 19.837 22.4171 20.4074 21.6999C21.7786 23.0569 23.4691 23.7653 25.2388 23.6819C27.9716 23.5555 29.7024 21.2734 29.8911 21.0137C29.8946 21.0096 29.8977 21.0047 29.9008 20.9999C29.904 20.995 29.9071 20.9901 29.9106 20.9859C31.4845 18.7191 31.336 16.6107 31.2166 14.9161C31.1611 14.1258 30.4533 10.9548 29.0265 7.78795C27.032 3.35853 24.5156 0.825048 21.5455 0.255574C18.8903 -0.252789 16.7529 1.15701 15.6425 1.98345C14.5377 1.15701 12.3962 -0.252789 9.74101 0.255574C6.77083 0.825048 4.25308 3.35853 2.25863 7.78795C0.83321 10.9548 0.123956 14.1258 0.0684522 14.9161C-0.0509257 16.6107 -0.198056 18.7191 1.37449 20.9859L1.39533 21.0137C1.58407 21.2734 3.31483 23.5555 6.04633 23.6819C7.82565 23.7666 9.51063 23.0555 10.8791 21.6999C11.449 22.4172 12.1734 22.9966 12.9981 23.3948ZM13.4801 19.4178L12.5891 18.1358L12.5766 18.1344C12.3918 17.8631 12.1422 17.6423 11.8506 17.4919C11.559 17.3415 11.2345 17.2663 10.9065 17.273C10.5785 17.2798 10.2574 17.3683 9.97221 17.5306C9.68703 17.6929 9.44679 17.9238 9.27329 18.2024C8.87633 18.8386 7.78539 20.3109 6.20037 20.2387C5.2857 20.1956 4.4363 19.3289 4.18369 18.9969C3.35926 17.7983 3.38701 16.7551 3.49805 15.1689C3.65487 13.6258 6.1615 4.44887 10.3823 3.64049C11.7882 3.37242 13.1248 4.39192 13.8438 4.94751L13.856 4.95685C14.0598 5.11218 14.2219 5.23571 14.3906 5.3392C14.7244 5.55577 15.1051 5.68914 15.501 5.72811C15.5934 5.73524 15.6862 5.73524 15.7786 5.72811C16.1742 5.68919 16.5549 5.55633 16.8889 5.34059C17.061 5.23364 17.2276 5.10724 17.4358 4.94751L17.4365 4.94697C18.1556 4.39681 19.4945 3.3725 20.8973 3.64049C25.1139 4.4447 27.6205 13.6119 27.7829 15.1689C27.8939 16.7607 27.9189 17.801 27.1 18.9969C26.8335 19.347 25.9897 20.2039 25.0792 20.247C23.4955 20.3178 22.4032 18.8469 21.9979 18.1955C21.8235 17.9169 21.5821 17.6866 21.2957 17.5254C21.0094 17.3643 20.6873 17.2776 20.3588 17.2732C20.0347 17.2717 19.7151 17.3493 19.4277 17.4994C19.1404 17.6494 18.894 17.8674 18.7099 18.1344L17.8188 19.4178C17.5762 19.769 17.2521 20.0561 16.8743 20.2544C16.4964 20.4527 16.0761 20.5563 15.6495 20.5563C15.2228 20.5563 14.8025 20.4527 14.4247 20.2544C14.0469 20.0561 13.7227 19.769 13.4801 19.4178Z" fill="#2E2C36"/>
</g>
<defs>
<clipPath id="clip0_606_4211">
<rect width="127.68" height="24" fill="white"/>
</clipPath>
</defs>
</svg>
